<?xml version="1.0" encoding="utf-8"?>
<!DOCTYPE svg PUBLIC "-//W3C//DTD SVG 1.0//EN" "http://www.w3.org/TR/2001/REC-SVG-20010904/DTD/svg10.dtd">
<svg version="1.0" xmlns="http://www.w3.org/2000/svg" width="1024px" height="1536px" viewBox="0 0 1024 1536" preserveAspectRatio="xMidYMid meet">
 <g fill="#E5E7EB">
  <path d="M506.7 938.3 c-0.9 -0.2 -1.4 -0.9 -1 -1.5 0.4 -0.8 0 -0.9 -1.1 -0.5 -2.5 1 -20.1 -4.3 -18.4 -5.5 0.9 -0.6 0.5 -0.7 -0.9 -0.3 -3.1 0.9 -7.1 -0.4 -5.2 -1.6 0.9 -0.6 0.2 -0.8 -2.1 -0.7 -2 0.1 -5.3 -0.5 -7.5 -1.2 -2.2 -0.8 -5.3 -1.3 -6.8 -1.1 -3.4 0.3 -8.9 -1.7 -8.1 -3 0.3 -0.5 -0.1 -0.9 -0.8 -0.9 -1 0 -1 -0.2 0.1 -0.9 1 -0.7 1.1 -1.2 0.1 -2.7 -1 -1.6 -1.1 -1.6 -0.6 -0.1 0.8 2.7 -0.2 2 -1.9 -1.3 -1.8 -3.5 -1.9 -5.4 -0.3 -4.4 0.7 0.4 0.8 0.3 0.4 -0.5 -0.4 -0.6 -1.1 -0.9 -1.6 -0.6 -0.4 0.3 -1 -0.1 -1.3 -0.8 -0.3 -0.6 -1.3 -2.9 -2.2 -5 -0.9 -2.2 -1.1 -3.6 -0.6 -3.2 1.8 1.1 1.2 -0.4 -1 -2.6 -1.4 -1.4 -1.7 -2.4 -1.1 -2.8 0.7 -0.4 0.8 -1.2 0.2 -2.1 -0.9 -1.3 -1 -1.3 -1 0 -0.1 0.8 -1.2 -1.1 -2.5 -4.3 -1.3 -3.2 -2.2 -6.6 -1.9 -7.5 0.4 -1.2 0.3 -1.3 -0.3 -0.5 -0.6 0.9 -1.3 0.3 -2.2 -2.2 -0.7 -1.9 -1 -3.9 -0.6 -4.4 0.3 -0.6 -0.1 -1.3 -0.9 -1.8 -1.8 -1.1 -4.7 -8 -4 -9.7 0.6 -1.6 -2.4 -8.1 -3.3 -7.2 -0.6 0.6 -10.3 -4.1 -10.3 -5 0 -0.3 0.6 -0.2 1.3 0.2 0.9 0.5 0.9 0.4 0 -0.6 -0.6 -0.7 -0.9 -2 -0.7 -2.9 0.3 -0.9 -0.1 -0.6 -0.8 0.6 -1.3 2.2 -1.4 2.2 -2.6 0.2 -0.7 -1.1 -1.8 -1.9 -2.5 -1.7 -2.2 0.4 -5.8 -1.3 -5.1 -2.4 0.5 -0.7 0.2 -0.9 -0.7 -0.6 -0.8 0.3 -3.3 -0.5 -5.5 -1.8 -2.1 -1.3 -3.4 -2.4 -2.8 -2.4 0.5 0 1.9 0.7 3 1.5 1 0.8 2.4 1.4 2.9 1.5 0.6 0 -0.3 -0.9 -2 -2 -1.6 -1.1 -4 -2 -5.3 -2 -2.4 0 -9.8 -4.3 -12 -6.9 -0.8 -0.9 -1.1 -1 -0.7 -0.4 0.3 0.7 -4.6 -1.8 -11 -5.5 -6.6 -3.8 -11.5 -7.3 -11.5 -8.2 0 -1.3 -0.1 -1.3 -1 0 -0.8 1.3 -1 1.2 -1 -0.4 0 -1.2 -0.5 -1.6 -1.6 -1.2 -1 0.4 -1.3 0.2 -0.8 -0.6 0.5 -0.8 0.2 -0.9 -1 -0.5 -1.1 0.5 -2.6 -0.2 -4.3 -2.1 -1.5 -1.5 -2.3 -2.2 -1.9 -1.5 0.4 0.7 -0.5 0.6 -2.4 -0.3 -1.7 -0.9 -2.8 -2 -2.5 -2.5 0.4 -0.5 -0.2 -0.6 -1.1 -0.2 -1.3 0.5 -1.5 0.3 -0.9 -0.7 0.5 -0.9 0.4 -1.1 -0.4 -0.6 -0.6 0.4 -2.3 -0.1 -3.9 -1.2 -1.5 -1 -5.4 -3.3 -8.7 -5.1 -3.3 -1.8 -6.8 -4.3 -7.8 -5.5 -1 -1.1 -1.6 -1.5 -1.2 -0.8 0.6 1.1 0.3 1.2 -1.4 0.3 -1.1 -0.7 -2.1 -1.4 -2.1 -1.7 0 -0.3 0.4 -0.3 0.8 0 0.5 0.3 0.9 -0.1 0.9 -0.9 0 -1.2 -0.3 -1.2 -1.5 -0.3 -1.1 1 -1.7 0.8 -1.2z m-79.4 -129.3 c0.5 -0.2 1.3 -0.4 1.9 -0.4 0.6 0 2.2 0.1 3.6 0.3 l2.5 0.3 -2.2 -0.1 c-1.3 -0.1 -3.4 -0.1 -4.6 0.1 -1.2 0.1 -1.5 0 -1.2 -0.2z m9 -3.7 c1.7 0.3 3.4 0.5 3.8 0.5 0.4 -0.1 -0.4 -0.4 -1.8 -0.7 -1.4 -0.3 -3.1 -0.4 -3.8 -0.1 -0.8 0.3 -0.5 0.4 1.8 0.3z m-20.3 3.3 c0.8 0 2.2 0.1 3.2 0.3 1 0.1 0.4 0.2 -1.4 0.1 -1.8 0 -2.6 -0.1 -1.8 -0.4z m46.3 -3.8 c-0.4 -0.1 -0.9 -0.3 -1.1 -0.5 -0.3 -0.2 0.4 0 1.4 0.3 1.1 0.3 1.9 0.6 1.8 0.6 -0.1 0 -1 -0.2 -2.1 -0.4z m-74.5 9.2 c0 -0.1 0.7 -0.1 1.5 0 1.3 0.1 1.3 0.1 0.2 0.2 -0.7 0 -1.7 0 -1.7 -0.2z m35.8 -6.7 c0.3 -0.1 0.9 -0.2 1.3 -0.2 0.5 0 0.3 0.1 -0.5 0.2 -0.8 0 -1.3 0.1 -0.8 0z m28.8 11.4 c0.5 0.1 1.5 0.1 2.2 0 0.6 -0.1 0 -0.2 -1.4 -0.2 -1.4 -0.1 -2 0 -0.8 0.2z m0.7 -8.1 c0.2 0.3 -0.1 0.4 -0.8 0.4 -0.6 0 -1 -0.1 -0.8 -0.3 0.2 -0.3 0.8 -0.4 1.6 -0.1z m-34.5 5.8 c-0.4 -0.2 -0.7 -0.5 -0.7 -0.9 0 -0.4 0.7 0.1 1.5 1.1 0.8 1 0.6 1.2 -0.8 -0.2z m71.3 -17.3 c0.5 0 1.6 0.1 2.4 0 1 -0.1 -0.2 -0.2 -2.8 -0.3 -2.5 0 -3.4 0 -2.2 0.1 1.1 0.1 2 0.2 2.6 0.2z m-39.1 -1.2 c-0.8 -0.1 -2.2 -0.2 -3 -0.1 -0.9 0 -0.1 0.2 1.7 0.2 1.9 0 2.8 -0.1 1.3 -0.1z m-2.1 -0.5 c-1 -0.3 -2.4 -0.5 -3.2 -0.5 -0.8 0 0.3 0.2 2.4 0.5 2.1 0.2 3.2 0.3 2.5 0.2 -0.8 0 -2 -0.2 -1.7 -0.2z m35 -5.8 c0 -0.1 0.8 -0.2 1.7 -0.1 1.3 0 1.3 0 0.1 0.1 -1.1 0.1 -1.9 0.1 -1.8 0z m38.9 0.6 c0.4 0.1 1.2 0.2 1.9 0.1 1 -0.1 0.4 -0.2 -1.3 -0.3 -1.6 0 -2.4 0 -0.6 0.2z m-69.8 1.5 c0.8 0 2 -0.1 2.8 -0.2 0.8 -0.1 -0.1 -0.1 -1.9 -0.1 -1.9 0.1 -2.6 0.2 -0.9 0.3z m-0.5 -1.1 c1.3 0.1 2.4 0.1 2.4 -0.1 0 -0.1 -0.9 -0.2 -2 -0.2 -1.1 0 -1.9 0.1 -0.4 0.3z m36.9 9.4 c0.7 -0.1 2 -0.1 2.9 0 1.1 0.1 0.3 0.1 -1.8 0.1 -2.1 0 -2.9 -0.1 -1.1 -0.1z m-64.2 -11.2 c1 0 2.6 0 3.5 0 1.3 0 0.4 -0.1 -2 -0.1 -2.1 0 -3.1 0 -1.5 0.1z m42.7 34.5 c1.2 0.5 2.1 1 1.9 1.2 -0.3 0.2 -1.3 -0.2 -2.2 -0.9 -0.9 -0.7 -1.5 -1.2 -1.2 -1.1 0.2 0.1 1 0.6 1.5 0.8z m-6.8 -7.3 c0.4 -0.5 0.8 -0.5 0.8 -0.1 0 0.4 -0.4 0.8 -0.8 0.8 -0.5 0 -0.5 -0.2 0 -0.7z m-15.9 7.8 c0.4 -0.2 1.2 -0.3 1.6 -0.2 0.5 0.2 0.2 0.4 -0.6 0.4 -0.8 0.1 -1.5 0 -1 -0.2z m4.3 -5.9 c1.6 -1.3 2.6 -1.4 1 -0.1 -0.7 0.6 -1.7 1.1 -2.1 1 -0.5 -0.1 -0.2 -0.5 1.1 -0.9z m21.8 9 c0.3 0 1.1 0.1 1.8 0.2 0.7 0.1 0.2 0.1 -1.1 0.1 -1.5 -0.1 -1.9 -0.2 -0.7 -0.3z m-5.5 -1.8 c0.8 -0.2 1 -0.1 0.5 0.2 -0.4 0.2 -1.1 0.4 -1.4 0.4 -0.4 0 -0.2 -0.2 0.9 -0.6z m-30.1 -8.1 c1.6 -0.4 2 -0.5 0.8 -0.3 -0.8 0.2 -2 0.5 -2.6 0.7 -0.8 0.2 -0.3 0.1 1.8 -0.4z m45.6 8.9 c1.3 -0.2 2.2 -0.3 2 -0.2 -0.2 0 -1.3 0.2 -2.5 0.3 -1.2 0.2 -1.7 0.2 -0.7 0.1 1 0 1.9 -0.1 1.2 -0.2z m-79.9 -0.3 c0.8 0.1 2.1 0 2.9 -0.2 0.9 -0.2 0.2 -0.2 -1.5 -0.1 -1.8 0 -2.5 0.1 -1.4 0.3z m26.8 2.9 c2.4 -0.2 3 -0.3 1.5 -0.3 -1.3 -0.1 -3.5 0 -4.9 0.2 -1.8 0.3 -1 0.4 3.4 0.1z m-19.4 -10.9 c-1.2 -2.3 -1.2 -2.3 1 -0.4 2.3 2.1 2.6 2.6 1.1 2.6 -0.5 0 -1.5 -1 -2.1 -2.2z"/>
  <path d="M459.9 652.8 c-1.2 -2.3 -1.2 -2.3 1 -0.4 2.3 2.1 2.6 2.6 1.1 2.6 -0.5 0 -1.5 -1 -2.1 -2.2z"/>
  <path d="M569.5 614 l-3 -0.8 3.3 -0.1 c1.7 0 3.2 0.4 3.2 0.9 0 0.6 -0.1 0.9 -0.2 0.9 -0.2 -0.1 -1.6 -0.5 -3.3 -0.9z"/>
  <path d="M425.3 536.5 c0 -2.7 0.2 -3.8 0.4 -2.2 0.2 1.5 0.2 3.7 0 5 -0.2 1.2 -0.4 0 -0.4 -2.8z"/>
  <path d="M614.3 510.3 c2 -0.2 5.4 -0.2 7.5 0 2 0.2 0.3 0.4 -3.8 0.4 -4.1 0 -5.8 -0.2 -3.7 -0.4z"/>
  <path d="M423.9 380.1 c1.3 -1.2 2.8 -2.1 3.5 -2.1 1.2 0 -0.5 1.4 -3.9 3.1 -1.6 0.8 -1.5 0.6 0.4 -1z"/>
 </g>
 <g fill="#D1D5DB">
  <path d="M499.5 581.4 c-10.3 -2 -12.5 -2.7 -12 -3.4 0.7 -1.1 -3.2 -2.3 -4.6 -1.4 -0.7 0.4 -2 -0.4 -3.1 -1.7 -1.1 -1.3 -1.6 -1.7 -1.2 -0.9 0.4 0.8 -0.8 0.2 -2.5 -1.5 -3.7 -3.4 -7.5 -10.1 -6.6 -11.5 0.3 -0.6 0.1 -1 -0.6 -1 -0.7 0 -1 -1.3 -0.7 -3.5 0.2 -1.9 0.1 -3.5 -0.3 -3.5 -0.8 0 0.8 -9.3 2.7 -15.3 0.9 -2.6 2 -4.5 2.5 -4.2 0.5 0.4 0.6 -0.1 0.3 -0.9 -0.3 -0.8 -0.1 -2.3 0.5 -3.3 0.8 -1.4 1 -1.5 1.1 -0.3 0 1.3 0.1 1.3 1 0 0.5 -0.8 0.5 -1.7 0 -2 -0.8 -0.5 4.4 -13.8 5.9 -15 0.3 -0.3 0.7 -1.2 0.9 -2 0.5 -2.6 6.4 -14.9 7.1 -14.8 1.9 0.2 2.4 -0.4 1.1 -1.2 -1.1 -0.7 -1.1 -1 -0.2 -1 0.7 0 1.1 -0.4 0.7 -0.9 -0.3 -0.5 0.2 -1.7 1.1 -2.5 0.8 -0.9 1.2 -1.6 0.9 -1.6 -0.8 0 6.9 -14.3 9.9 -18.3 1.1 -1.5 2.6 -2.5 3.4 -2.2 0.7 0.2 1.1 0.1 0.8 -0.4 -0.8 -1.2 1.9 -2.1 6.4 -2.1 5.2 0 7 0.8 6.3 2.8 -0.5 1.1 -0.2 1.4 1 0.9 0.9 -0.3 1.9 -0.2 2.2 0.4 0.4 0.5 0.3 0.8 -0.2 0.7 -0.4 -0.2 -0.9 0.2 -1 0.7 -0.2 0.6 0.7 1 1.9 1 1.8 0 3.3 2 7.4 9.9 4.3 8.2 5.1 10.4 4.3 12.4 -0.8 2.2 -0.7 2.4 1.1 1.9 1.7 -0.4 2.5 0.4 4.6 4.5 1.4 2.8 2.7 6.5 2.8 8.2 0.1 1.7 0.6 3 1.2 2.9 1.6 -0.3 7.5 13.4 6.7 15.4 -0.4 1 -0.2 1.4 0.5 1 1.1 -0.8 4.5 7.1 6.2 14.6 1.7 7.6 1 22.5 -1 21.2 -0.4 -0.3 -1.1 0.2 -1.4 1.1 -0.3 0.8 -0.2 1.2 0.4 0.9 0.6 -0.3 0.7 0.1 0.4 0.9 -0.3 0.9 -1 1.3 -1.5 1 -0.5 -0.3 -0.6 0.1 -0.3 0.9 0.6 1.7 -6.2 7.1 -7.8 6.1 -0.6 -0.4 -0.8 -0.3 -0.5 0.3 0.8 1.3 -2 2.6 -3.5 1.6 -0.7 -0.4 -0.8 -0.1 -0.3 0.7 0.6 1 0.3 1.2 -1.3 0.8 -1.2 -0.4 -2 -0.2 -1.7 0.2 0.6 1 -5.1 2.4 -6.5 1.5 -0.5 -0.3 -1 -0.1 -1 0.5 0 0.8 -1.4 1.1 -3.9 0.8 -2.2 -0.2 -3.7 0 -3.5 0.4 0.5 0.8 -22.3 0.9 -26.1 0.2z m3.9 -1.2 c0.3 -0.5 -1.4 -0.9 -3.7 -0.9 -3.9 -0.1 -4 -0.1 -1.2 0.7 4.2 1.1 4.3 1.1 4.9 0.2z m7.6 -13.8 c1.9 0.2 4.6 -0.1 6 -0.5 1.7 -0.5 0.3 -0.8 -4.5 -0.8 -3.8 -0.1 -8.1 -0.4 -9.5 -0.6 -2.3 -0.5 -2.3 -0.4 0.3 0.6 1.6 0.6 2.4 1.5 2 2.2 -0.5 0.9 -0.3 0.9 0.8 0 0.8 -0.6 3 -1 4.9 -0.9z m12.3 -0.1 c-0.3 -0.7 -1.3 -1.3 -2.2 -1.2 -1 0 -1.1 0.2 -0.3 0.6 0.6 0.2 1 0.8 0.8 1.2 -0.3 0.4 0.1 0.8 0.8 0.8 0.8 0 1.2 -0.6 0.9 -1.4z m-9.3 -2.8 c... <truncated>
 </g>
</svg>
