<?xml version="1.0" encoding="UTF-8"?>
<svg version="1.1" xmlns="http://www.w3.org/2000/svg" width="240" height="240">
<path d="M0 0 C79.2 0 158.4 0 240 0 C240 79.2 240 158.4 240 240 C160.8 240 81.6 240 0 240 C0 160.8 0 81.6 0 0 Z " fill="#00D900" transform="translate(0,0)"/>
<path d="M0 0 C8.269461 7.69432931 12.5813906 17.73086603 13.140625 28.93359375 C12.8363004 41.27776028 7.72233388 50.67556954 -0.984375 58.99609375 C-8.90483371 65.66755705 -18.54602326 67.70280268 -28.65625 67.578125 C-41.17019773 66.41689623 -49.64656264 59.71619227 -57.609375 50.49609375 C-63.12476672 39.4653103 -64.85524288 29.48624104 -61.609375 17.62109375 C-58.01362306 6.88430462 -51.12025429 -0.34611727 -41.171875 -5.56640625 C-27.71051762 -11.89162237 -11.58402031 -9.09305091 0 0 Z " fill="#000100" transform="translate(145.234375,121.75390625)"/>
<path d="M0 0 C11.22 0 22.44 0 34 0 C34 18.15 34 36.3 34 55 C27.07 55 20.14 55 13 55 C13 42.79 13 30.58 13 18 C7.06 18 1.12 18 -5 18 C-3.50518575 11.88485079 -1.99221051 5.97663154 0 0 Z " fill="#000600" transform="translate(97,51)"/>
<path d="M0 0 C4.51657458 3.31473928 8.50461623 7.81001316 9.8203125 13.3359375 C10.66490229 20.0662624 9.49374215 25.60495635 5.8203125 31.3359375 C1.58487708 36.13541396 -2.84737366 38.81864629 -9.2734375 39.5859375 C-15.0778414 39.90398703 -19.44357236 38.73596963 -24.1796875 35.3359375 C-29.61738101 30.35640886 -32.14892424 25.36611694 -32.5546875 17.9609375 C-32.38952691 12.18031671 -30.47975535 7.79406688 -26.53125 3.57421875 C-18.82312729 -3.37655566 -9.33584721 -5.32937027 0 0 Z " fill="#00D600" transform="translate(131.1796875,132.6640625)"/>
</svg>
