<?xml version="1.0" encoding="UTF-8"?>
<svg version="1.1" xmlns="http://www.w3.org/2000/svg" width="220" height="220">
<path d="M0 0 C72.6 0 145.2 0 220 0 C220 72.6 220 145.2 220 220 C147.4 220 74.8 220 0 220 C0 147.4 0 74.8 0 0 Z " fill="#4AA1FD" transform="translate(0,0)"/>
<path d="M0 0 C7.84541375 6.66860168 14.24921595 16.74137543 15.203125 27.234375 C15.33245287 34.17497086 14.60471345 38.90690278 10 44.375 C6.38828647 47.30951725 2.70016552 47.38513925 -1.7734375 47.36328125 C-5.30687494 46.78677304 -6.86970568 44.7294396 -9 42 C-9.33 41.67 -9.66 41.34 -10 41 C-11.14732951 33.77182411 -9.15790983 27.43805714 -6.77880859 20.71069336 C-5.37285244 16.6546652 -4.7334684 13.29115875 -5 9 C-12.02254359 8.57907954 -16.35449879 9.53599937 -22.5234375 12.8046875 C-23.30306351 13.199478 -24.08268951 13.59426849 -24.88594055 14.00102234 C-27.39151274 15.27518714 -29.88305311 16.57442047 -32.375 17.875 C-34.10055541 18.75922159 -35.82687724 19.6419491 -37.55395508 20.52319336 C-41.67848907 22.63335007 -45.79217374 24.76348848 -49.90032959 26.90533447 C-51.7051282 27.84626825 -53.51180657 28.7835949 -55.31884766 29.72021484 C-59.85212185 32.07071144 -64.36513185 34.45537925 -68.86523438 36.86865234 C-71.30043065 38.15921725 -73.7505597 39.41854999 -76.203125 40.67578125 C-77.07751221 41.12687256 -77.95189941 41.57796387 -78.8527832 42.04272461 C-80.52022089 42.90219447 -82.19044786 43.75628449 -83.86401367 44.60375977 C-89.52166664 47.5302177 -89.52166664 47.5302177 -94 52 C-93.85205998 55.6985004 -93.64194427 57.35805573 -91 60 C-81.70440893 61.28620528 -71.46056516 59.3373299 -62.1625061 58.46130371 C-57.17064047 57.99202012 -52.17709744 57.54130909 -47.18359375 57.08984375 C-46.16923752 56.99788727 -45.15488129 56.90593079 -44.10978699 56.81118774 C-34.68671478 55.96169136 -25.25909126 55.17904556 -15.82629395 54.44570923 C-14.16870546 54.31665913 -12.51123072 54.18613835 -10.85388184 54.05404663 C14.85649465 52.00978346 14.85649465 52.00978346 22 58 C26.83193327 63.15406216 27.45467843 68.88348477 27.3046875 75.69140625 C25.95973597 90.29620043 18.26530538 102.69961506 7.45703125 112.24609375 C1.5860429 117.1111225 -4.30455442 121.34896005 -11 125 C-11.66515625 125.36738281 -12.3303125 125.73476562 -13.015625 126.11328125" fill="#FFFFFF" transform="translate(110,110)"/>
</svg>
