<?xml version="1.0" encoding="UTF-8"?>
<svg version="1.1" xmlns="http://www.w3.org/2000/svg" width="60" height="60">
<path d="M0 0 C0 2.64 0 5.28 0 8 C0.58007812 8.17015625 1.16015625 8.3403125 1.7578125 8.515625 C11.03338668 11.39319587 16.98560748 15.59488238 21.8125 24.25 C23.24853285 28.78484058 24.04492055 33.29374366 23 38 C20.7489765 40.13304533 19.43407753 40.91731857 16.375 41.5 C12.93964692 40.9910588 11.02384624 40.06747117 8 38.4375 C4.86453922 36.7875049 3.27603246 36.01041632 -0.3125 35.875 C-3.7100729 37.29723982 -5.54794175 39.28285437 -8 42 C-12.04485657 44.69657104 -15.25307196 44.5422677 -20 44 C-23.89835069 42.34112736 -25.42290173 40.86423212 -27 37 C-28.1848982 29.8678243 -27.0379443 24.32983154 -23.03515625 18.33984375 C-20.03529071 14.89086207 -16.5460034 12.49067758 -12.76171875 9.9609375 C-9.27032556 7.48190019 -6.45777504 4.60300004 -3.55859375 1.46875 C-2 0 -2 0 0 0 Z " fill="#58C5F3" transform="translate(32,2)"/>
<path d="M0 0 C1.66089548 0.65026903 3.30633835 1.3408801 4.9375 2.0625 C9.83242523 4.19887625 12.82839955 4.14924455 18 3 C15.45738545 8.74258798 10.96918914 11.86953957 5.625 14.9375 C1.09467923 16.26535264 -2.49213093 16.51383663 -7 15 C-9.60596923 13.17582154 -10.36330571 11.89149325 -12 9 C-12.06977056 5.44170148 -11.70626588 3.81492217 -9.375 1.125 C-5.94071562 -0.50176629 -3.79528279 -0.42849967 0 0 Z " fill="#57C4F3" transform="translate(36,42)"/>
<path d="M0 0 C2.5 2.4375 2.5 2.4375 3.125 6 C2.5 9.4375 2.5 9.4375 0.875 11.375 C-2.35749355 12.82111553 -3.94991515 12.9634385 -7.5 12.4375 C-10.94446254 10.96597328 -14.21257126 9.22768397 -17.5 7.4375 C-18.83061601 6.76542615 -20.16299037 6.09676282 -21.5 5.4375 C-14.62864955 -0.49684811 -9.0732534 -4.05055955 0 0 Z " fill="#9BE1FE" transform="translate(52.5,30.5625)"/>
<path d="M0 0 C0 4 0 4 -1.8984375 5.921875 C-2.71570312 6.52515625 -3.53296875 7.1284375 -4.375 7.75 C-5.18710937 8.36359375 -5.99921875 8.9771875 -6.8359375 9.609375 C-9 11 -9 11 -11 11 C-10.7618484 6.87203885 -10.60339108 4.65367367 -7.75 1.5625 C-4.8188749 -0.10291199 -3.3053906 -0.37775893 0 0 Z " fill="#F6FBFE" transform="translate(29,29)"/>
</svg>
